<?xml version="1.0" encoding="UTF-8" standalone="no"?>
<svg
   xmlns:dc="http://purl.org/dc/elements/1.1/"
   xmlns:cc="http://creativecommons.org/ns#"
   xmlns:rdf="http://www.w3.org/1999/02/22-rdf-syntax-ns#"
   xmlns:svg="http://www.w3.org/2000/svg"
   xmlns="http://www.w3.org/2000/svg"
   xmlns:sodipodi="http://sodipodi.sourceforge.net/DTD/sodipodi-0.dtd"
   xmlns:inkscape="http://www.inkscape.org/namespaces/inkscape"
   viewBox="0 0 70 70"
   height="50"
   width="50"
   xml:space="preserve"
   version="1.1"
   id="svg2"
   inkscape:version="0.92.3 (2405546, 2018-03-11)"
   sodipodi:docname="WadM-icon.svg"><sodipodi:namedview
     pagecolor="#ffffff"
     bordercolor="#666666"
     borderopacity="1"
     objecttolerance="10"
     gridtolerance="10"
     guidetolerance="10"
     inkscape:pageopacity="0"
     inkscape:pageshadow="2"
     inkscape:window-width="1778"
     inkscape:window-height="948"
     id="namedview40"
     showgrid="false"
     inkscape:zoom="15.937667"
     inkscape:cx="33.345535"
     inkscape:cy="26.716499"
     inkscape:window-x="0"
     inkscape:window-y="50"
     inkscape:window-maximized="1"
     inkscape:current-layer="svg2"
     showguides="true"
     inkscape:guide-bbox="true"><sodipodi:guide
       position="217.00048,11.224163"
       orientation="1,0"
       id="guide4138" /></sodipodi:namedview><metadata
     id="metadata8"><rdf:RDF><cc:Work
         rdf:about=""><dc:format>image/svg+xml</dc:format><dc:type
           rdf:resource="http://purl.org/dc/dcmitype/StillImage" /><dc:title /></cc:Work></rdf:RDF></metadata><defs
     id="defs6" /><g
     id="g4523"
     style="fill:#ffffff"><g
       transform="matrix(0.1968855,0,0,-0.2177144,29.669774,19.113347)"
       id="g20"
       style="fill:#ffffff"><path
         id="path22"
         style="fill:#ffffff;fill-opacity:1;fill-rule:nonzero;stroke:none"
         d="m 0,0 c 3.749,0 6.789,3.039 6.789,6.789 0,3.749 -3.04,6.788 -6.789,6.788 -3.749,0 -6.789,-3.039 -6.789,-6.788 C -6.789,3.039 -3.749,0 0,0"
         inkscape:connector-curvature="0" /></g><g
       transform="matrix(0.1968855,0,0,-0.2177144,43.643596,50.363828)"
       id="g76"
       style="fill:#ffffff"><path
         id="path78"
         style="fill:#ffffff;fill-opacity:1;fill-rule:nonzero;stroke:none"
         d="m 0,0 h -141.201 v 2.017 4.547 24.888 2.063 30.724 2.063 24.888 4.547 2.017 H 0 Z m 16.292,3.797 v 7.064 c 1.705,2.27 2.716,5.09 2.716,8.147 0,3.057 -1.011,5.877 -2.716,8.146 v 9.583 c 3.333,2.983 5.431,7.316 5.431,12.14 0,4.825 -2.098,9.157 -5.431,12.141 V 70.6 c 1.705,2.269 2.716,5.09 2.716,8.146 0,3.057 -1.011,5.878 -2.716,8.147 v 7.064 c 4.835,2.472 8.147,7.498 8.147,13.301 0,8.248 -6.687,14.935 -14.935,14.935 -5.803,0 -10.829,-3.312 -13.301,-8.146 h -3.082 c -2.872,2.533 -6.641,4.073 -10.771,4.073 -4.13,0 -7.899,-1.54 -10.771,-4.073 H -35.3 c -0.37,0.278 -0.755,0.537 -1.153,0.776 l -26.163,30.451 -1.456,-1.252 23.732,-27.621 c -0.998,0.233 -2.037,0.361 -3.106,0.361 -3.057,0 -5.877,-1.011 -8.147,-2.715 h -6.867 c -2.983,3.332 -7.316,5.43 -12.14,5.43 -4.825,0 -9.158,-2.098 -12.141,-5.43 h -6.867 c -2.269,1.704 -5.09,2.715 -8.146,2.715 -1.07,0 -2.109,-0.128 -3.107,-0.361 l 23.732,27.621 -1.456,1.252 -26.163,-30.451 c -0.398,-0.239 -0.783,-0.498 -1.153,-0.776 h -6.879 c -2.872,2.533 -6.64,4.073 -10.771,4.073 -4.13,0 -7.899,-1.54 -10.77,-4.073 h -3.082 c -2.473,4.834 -7.499,8.146 -13.302,8.146 -8.248,0 -14.934,-6.687 -14.934,-14.935 0,-5.803 3.311,-10.829 8.146,-13.301 v -7.064 c -1.705,-2.269 -2.715,-5.09 -2.715,-8.147 0,-3.056 1.01,-5.877 2.715,-8.146 v -9.582 c -3.332,-2.984 -5.431,-7.316 -5.431,-12.141 0,-4.824 2.099,-9.157 5.431,-12.14 v -9.583 c -1.705,-2.269 -2.715,-5.089 -2.715,-8.146 0,-3.057 1.01,-5.877 2.715,-8.147 V 3.797 c -4.835,-2.472 -8.146,-7.498 -8.146,-13.301 0,-8.248 6.686,-14.935 14.934,-14.935 5.803,0 10.829,3.312 13.302,8.147 h 3.082 c 2.871,-2.534 6.64,-4.073 10.77,-4.073 4.131,0 7.899,1.539 10.771,4.073 h 6.879 c 2.27,-1.705 5.09,-2.716 8.147,-2.716 3.056,0 5.877,1.011 8.146,2.716 h 6.867 c 2.983,-3.333 7.316,-5.431 12.141,-5.431 4.824,0 9.157,2.098 12.14,5.431 h 6.867 c 2.27,-1.705 5.09,-2.716 8.147,-2.716 3.056,0 5.877,1.011 8.146,2.716 h 6.879 c 2.872,-2.534 6.641,-4.073 10.771,-4.073 4.13,0 7.899,1.539 10.771,4.073 h 3.082 c 2.472,-4.835 7.498,-8.147 13.301,-8.147 8.248,0 14.935,6.687 14.935,14.935 0,5.803 -3.312,10.829 -8.147,13.301"
         inkscape:connector-curvature="0" /></g></g></svg>